PathFileType	3	(X/Y/Z)	walking_2__view2_aligned.trc
DataRate	CameraRate	NumFrames	NumMarkers	Units	OrigDataRate	OrigDataStartFrame	OrigNumFrames
100.0	100.0	12	19	mm	100.0	3376	6310
Frame#	Time	pelvis			neck			head			hip_left			hip_right			knee_left			knee_right			ankle_left			ankle_right			heel_left			heel_right			toe_left			toe_right			shoulder_left			shoulder_right			elbow_left			elbow_right			wrist_left			wrist_right			
		X1	Y1	Z1	X2	Y2	Z2	X3	Y3	Z3	X4	Y4	Z4	X5	Y5	Z5	X6	Y6	Z6	X7	Y7	Z7	X8	Y8	Z8	X9	Y9	Z9	X10	Y10	Z10	X11	Y11	Z11	X12	Y12	Z12	X13	Y13	Z13	X14	Y14	Z14	X15	Y15	Z15	X16	Y16	Z16	X17	Y17	Z17	X18	Y18	Z18	X19	Y19	Z19	
3376	33.75000	39.449675	925.796758	241.653920	36.671689	1483.458572	302.308500	33.989485	1563.461311	458.364732	114.494489	927.718281	236.068348	-35.594900	923.875211	247.239515	132.277963	504.531642	351.991873	-78.964588	504.816728	314.142058	121.176246	83.363511	351.178581	-95.017785	229.052528	-3.963523	113.517948	29.521635	324.304536	-92.240680	217.462397	-60.669837	129.236323	47.389844	544.616668	-112.879430	69.101992	81.186505	209.568349	1430.052743	234.214655	-141.653945	1425.949844	285.262497	287.438780	1144.788291	184.088924	-206.447446	1138.812743	290.599318	361.821736	883.223571	203.242505	-183.779894	925.468777	430.276308
3377	33.76000	40.401265	925.852106	242.049532	36.884231	1483.475464	302.605852	33.220754	1563.637998	458.448241	115.508308	927.953017	236.593835	-34.705491	923.751166	247.505255	132.589958	503.807350	347.316141	-78.627474	506.360359	321.200849	120.672181	82.905365	341.291495	-95.498290	230.389379	6.304590	112.930041	29.372181	313.876269	-92.739365	218.814413	-50.169830	128.852910	45.138810	534.097405	-113.379328	70.473302	91.221628	210.037617	1430.242106	236.409445	-140.766386	1426.312270	283.586182	288.230518	1145.290301	187.665409	-205.150877	1139.354039	285.083897	360.790087	884.029190	208.715893	-184.601485	923.647554	419.708945
3378	33.77000	41.352855	925.907453	242.445145	37.096773	1483.492356	302.903204	32.452023	1563.814686	458.531750	116.522127	928.187753	237.119322	-33.816082	923.627120	247.770996	132.901954	503.083057	342.640410	-78.290360	507.903990	328.259640	120.168116	82.447220	331.404409	-95.978796	231.726231	16.572704	112.342135	29.222728	303.448001	-93.238049	220.166430	-39.669824	128.469496	42.887777	523.578142	-113.879225	71.844612	101.256751	210.506886	1430.431468	238.604236	-139.878828	1426.674695	281.909866	289.022256	1145.792311	191.241895	-203.854309	1139.895334	279.568476	359.758438	884.834809	214.189280	-185.423076	921.826330	409.141581
3379	33.78000	42.304445	925.962801	242.840758	37.309315	1483.509248	303.200557	31.683292	1563.991373	458.615259	117.535946	928.422488	237.644810	-32.926673	923.503075	248.036736	133.213949	502.358765	337.964678	-77.953246	509.447621	335.318431	119.664051	81.989074	321.517323	-96.459302	233.063082	26.840818	111.754228	29.073275	293.019733	-93.736733	221.518446	-29.169818	128.086083	40.636744	513.058879	-114.379122	73.215921	111.291874	210.976154	1430.620831	240.799026	-138.991270	1427.037120	280.233550	289.813994	1146.294321	194.818380	-202.557740	1140.436629	274.053055	358.726788	885.640428	219.662667	-186.244667	920.005107	398.574218
3380	33.79000	43.256035	926.018148	243.236370	37.521858	1483.526141	303.497909	30.914561	1564.168061	458.698768	118.549764	928.657224	238.170297	-32.037264	923.379029	248.302476	133.525945	501.634473	333.288947	-77.616132	510.991252	342.377221	119.159985	81.530929	311.630237	-96.939808	234.399933	37.108931	111.166321	28.923822	282.591465	-94.235417	222.870462	-18.669811	127.702670	38.385710	502.539616	-114.879020	74.587231	121.326997	211.445423	1430.810193	242.993816	-138.103711	1427.399546	278.557235	290.605731	1146.796331	198.394865	-201.261172	1140.977925	268.537634	357.695139	886.446046	225.136055	-187.066258	918.183884	388.006854
3381	33.80000	44.207625	926.073496	243.631983	37.734400	1483.543033	303.795262	30.145830	1564.344748	458.782277	119.563583	928.891959	238.695784	-31.147855	923.254984	248.568216	133.837941	500.910180	328.613215	-77.279018	512.534882	349.436012	118.655920	81.072783	301.743152	-97.420313	235.736785	47.377045	110.578415	28.774369	272.163197	-94.734101	224.222479	-8.169805	127.319257	36.134677	492.020353	-115.378917	75.958541	131.362120	211.914692	1430.999556	245.188606	-137.216153	1427.761971	276.880919	291.397469	1147.298341	201.971350	-199.964604	1141.519220	263.022213	356.663490	887.251665	230.609442	-187.887849	916.362661	377.439491
3382	33.81000	44.478780	926.471021	243.721535	36.994113	1483.754599	304.264952	28.033974	1564.573485	458.941316	119.881434	929.431255	239.192756	-30.923444	923.510750	248.250345	133.479039	500.817798	322.447374	-78.547547	514.404202	356.265366	118.255968	80.763167	290.121076	-100.045851	235.095643	62.250920	110.282600	28.591502	259.926722	-97.396799	222.900951	7.376755	126.647870	34.475718	480.736640	-118.976493	77.549896	147.787532	211.504602	1431.313196	248.128578	-137.119839	1428.144026	275.001444	291.249161	1147.743993	206.522658	-199.157671	1142.022426	257.754659	353.595335	888.335337	238.459498	-189.855053	914.457084	366.631546
3383	33.82000	44.749935	926.868546	243.811088	36.253827	1483.966165	304.734642	25.922118	1564.802222	459.100356	120.199285	929.970550	239.689728	-30.699032	923.766516	247.932474	133.120137	500.725416	316.281533	-79.816075	516.273521	363.094720	117.856015	80.453551	278.499000	-102.671389	234.454502	77.124794	109.986785	28.408634	247.690246	-100.059498	221.579424	22.923315	125.976484	32.816758	469.452926	-122.574068	79.141250	164.212945	211.094512	1431.626837	251.068550	-137.023525	1428.526082	273.121969	291.100852	1148.189646	211.073967	-198.350738	1142.525632	252.487105	350.527179	889.419009	246.309554	-191.822258	912.551507	355.823601
3384	33.83000	45.021089	927.266071	243.900640	35.513540	1484.177732	305.204332	23.810262	1565.030958	459.259395	120.517136	930.509845	240.186700	-30.474620	924.022281	247.614604	132.761235	500.633034	310.115691	-81.084604	518.142841	369.924073	117.456063	80.143936	266.876925	-105.296926	233.813361	91.998668	109.690970	28.225766	235.453770	-102.722196	220.257896	38.469876	125.305098	31.157799	458.169213	-126.171644	80.732605	180.638357	210.684422	1431.940477	254.008522	-136.927212	1428.908137	271.242493	290.952544	1148.635299	215.625276	-197.543805	1143.028838	247.219551	347.459024	890.502680	254.159610	-193.789462	910.645931	345.015656
3385	33.84000	45.292244	927.663596	243.990192	34.773253	1484.389298	305.674022	21.698407	1565.259695	459.418435	120.834987	931.049141	240.683672	-30.250209	924.278047	247.296733	132.402333	500.540651	303.949850	-82.353133	520.012160	376.753427	117.056110	79.834320	255.254849	-107.922464	233.172220	106.872543	109.395155	28.042899	223.217295	-105.384894	218.936369	54.016436	124.633712	29.498840	446.885500	-129.769219	82.323959	197.063770	210.274332	1432.254118	256.948494	-136.830898	1429.290192	269.363018	290.804236	1149.080952	220.176584	-196.736873	1143.532043	241.951997	344.390869	891.586352	262.009666	-195.756666	908.740354	334.207711
3386	33.85000	45.563399	928.061122	244.079744	34.032967	1484.600864	306.143712	19.586551	1565.488431	459.577474	121.152838	931.588436	241.180644	-30.025797	924.533813	246.978862	132.043431	500.448269	297.784009	-83.621662	521.881480	383.582781	116.656158	79.524704	243.632774	-110.548002	232.531079	121.746417	109.099340	27.860031	210.980819	-108.047593	217.614841	69.562996	123.962326	27.839881	435.601786	-133.366795	83.915314	213.489183	209.864243	1432.567759	259.888466	-136.734585	1429.672248	267.483543	290.655927	1149.526605	224.727893	-195.929940	1144.035249	236.684443	341.322714	892.670024	269.859722	-197.723870	906.834777	323.399766
3387	33.86000	45.834554	928.458647	244.169297	33.292680	1484.812431	306.613403	17.474695	1565.717168	459.736514	121.470689	932.127731	241.677616	-29.801386	924.789579	246.660991	131.684529	500.355887	291.618167	-84.890191	523.750799	390.412134	116.256205	79.215088	232.010698	-113.173539	231.889937	136.620291	108.803525	27.677163	198.744343	-110.710291	216.293314	85.109556	123.290940	26.180921	424.318073	-136.964370	85.506669	229.914595	209.454153	1432.881399	262.828438	-136.638271	1430.054303	265.604067	290.507619	1149.972257	229.279201	-195.123007	1144.538455	231.416889	338.254558	893.753696	277.709777	-199.691074	904.929200	312.591821
